<svg width="1512" height="903" viewBox="0 0 1512 903" fill="none" xmlns="http://www.w3.org/2000/svg">
    <path d="M772.258 -625.031C876.109 -722.935 1177.11 -484.422 1247.65 -442.439C1317.29 -399.51 1321 -249.615 1389.34 -173.592C1457.39 -96.0422 1590.69 -91.7832 1640.5 -24.4011C1689.41 43.9273 1581.19 373.5 1581.19 373.5C1581.19 373.5 1511.69 586 1288.19 623C1086.64 656.367 1102.6 838.368 1016.69 854C931.067 868.105 861.156 847.672 736.205 822.46C611.253 797.248 442.608 898.404 325.724 902.569C209.133 905.207 144.597 809.325 97.1354 684.557C48.7717 560.735 -406.186 -2.19036 -304.551 -114.858C-202.015 -228.471 240.951 -292.944 394.746 -395.616C547.029 -497.922 667.797 -527.708 772.258 -625.031Z" fill="url(#paint0_radial_43_22)"/>
    <defs>
        <radialGradient id="paint0_radial_43_22" cx="0" cy="0" r="1" gradientUnits="userSpaceOnUse" gradientTransform="translate(1168.19 273) rotate(170.482) scale(1273.02 1221.3)">
            <stop offset="0.166667" stop-color="#8E62EC"/>
            <stop offset="1" stop-color="#4C57DA"/>
        </radialGradient>
    </defs>
</svg>
