<svg width="1437" height="1053" viewBox="0 0 1437 1053" fill="none" xmlns="http://www.w3.org/2000/svg">
    <path d="M987.054 -531.422C1073.37 -645.088 1409.53 -459.383 1486.02 -429.587C1561.78 -398.709 1590.11 -251.47 1670.04 -187.736C1749.93 -122.447 1882.11 -140.191 1942.33 -81.9286C2001.82 -22.5845 1949.34 320.308 1949.34 320.308C1949.34 320.308 1915.77 541.35 1701.41 614.64C1508.1 680.733 1553.81 857.623 1471.65 887.186C1389.51 915.194 1317.19 906.55 1189.8 902.253C1062.4 897.956 912.708 1025.5 798.104 1048.85C683.538 1070.64 604.098 986.695 536.743 871.443C468.654 757.272 -72.7707 276.929 8.92817 149.067C91.3613 20.1228 517.669 -116.397 652.462 -242.987C785.824 -368.968 900.041 -418.23 987.054 -531.422Z" fill="url(#paint0_radial_43_60)" fill-opacity="0.74"/>
    <defs>
        <radialGradient id="paint0_radial_43_60" cx="0" cy="0" r="1" gradientUnits="userSpaceOnUse" gradientTransform="translate(1382.7 278.591) rotate(140.346) scale(778.006 746.397)">
            <stop offset="0.166667" stop-color="#7C56D0"/>
            <stop offset="1" stop-color="#4C57DA"/>
        </radialGradient>
    </defs>
</svg>
